<svg width="945" height="140" viewBox="0 0 945 140" fill="none" xmlns="http://www.w3.org/2000/svg">
<path d="M855.041 0C858.829 0.000235587 861.904 3.07185 861.904 6.86426V57.1416L919.039 0H944.244V1.96875L885.832 60.3896H906.529C909.072 60.3897 911.517 61.4 913.317 63.2031L941.431 91.3174L941.597 91.4893C943.295 93.2741 944.244 95.6453 944.244 98.1133V139.997H924.673L925.016 91.499L925.012 91.293C924.968 90.2643 924.541 89.2887 923.812 88.5615L916.066 80.8135L915.918 80.6729C915.16 79.989 914.175 79.6075 913.153 79.6074H866.024C863.75 79.6076 861.908 81.4494 861.908 83.7246V133.136C861.908 136.928 858.836 140 855.044 140H842.689V2.03223C842.689 0.911556 843.6 5.78388e-05 844.721 0H855.041Z" fill="black"></path>
<path d="M855.041 0C858.829 0.000235587 861.904 3.07185 861.904 6.86426V57.1416L919.039 0H944.244V1.96875L885.832 60.3896H906.529C909.072 60.3897 911.517 61.4 913.317 63.2031L941.431 91.3174L941.597 91.4893C943.295 93.2741 944.244 95.6453 944.244 98.1133V139.997H924.673L925.016 91.499L925.012 91.293C924.968 90.2643 924.541 89.2887 923.812 88.5615L916.066 80.8135L915.918 80.6729C915.16 79.989 914.175 79.6075 913.153 79.6074H866.024C863.75 79.6076 861.908 81.4494 861.908 83.7246V133.136C861.908 136.928 858.836 140 855.044 140H842.689V2.03223C842.689 0.911556 843.6 5.78388e-05 844.721 0H855.041Z" stroke="black"></path>
<path d="M737.939 108.894C737.934 109.986 738.37 111.043 739.144 111.82L746.897 119.574C747.669 120.347 748.714 120.779 749.809 120.779H803.801V139.997H759.749L759.753 140H756.439C753.889 140 751.444 138.989 749.644 137.186L721.529 109.068C719.727 107.266 718.717 104.821 718.717 102.273V0H738.375L737.939 108.894Z" fill="black"></path>
<path d="M737.939 108.894C737.934 109.986 738.37 111.043 739.144 111.82L746.897 119.574C747.669 120.347 748.714 120.779 749.809 120.779H803.801V139.997H759.749L759.753 140H756.439C753.889 140 751.444 138.989 749.644 137.186L721.529 109.068C719.727 107.266 718.717 104.821 718.717 102.273V0H738.375L737.939 108.894Z" stroke="black"></path>
<path d="M654.101 0.00146484C655.922 0.00151955 657.668 0.727291 658.955 2.01514L677.696 20.7583C678.98 22.0432 679.705 23.7885 679.705 25.6089L679.828 139.999H664.183C662.212 139.999 660.612 138.398 660.612 136.427V83.7915C660.611 81.5164 658.77 79.6745 656.495 79.6743H656.493L601.672 79.605C599.398 79.6056 597.557 81.4482 597.557 83.7231V83.7251L597.488 136.429C597.487 138.404 595.886 139.998 593.917 139.999H578.269V25.606C578.269 23.786 578.99 22.0431 580.279 20.7544L599.023 2.01123L599.024 2.00928C600.31 0.726555 602.052 0.0015847 603.876 0.00146484H654.101ZM601.608 19.2183C599.334 19.2183 597.491 21.064 597.49 23.3364V60.3911H660.618V43.9077C660.539 43.6133 660.496 43.3049 660.496 42.9888V23.3364C660.496 21.0614 658.654 19.2185 656.38 19.2183H601.608Z" fill="black"></path>
<path d="M654.101 0.00146484C655.922 0.00151955 657.668 0.727291 658.955 2.01514L677.696 20.7583C678.98 22.0432 679.705 23.7885 679.705 25.6089L679.828 139.999H664.183C662.212 139.999 660.612 138.398 660.612 136.427V83.7915C660.611 81.5164 658.77 79.6745 656.495 79.6743H656.493L601.672 79.605C599.398 79.6056 597.557 81.4482 597.557 83.7231V83.7251L597.488 136.429C597.487 138.404 595.886 139.998 593.917 139.999H578.269V25.606C578.269 23.786 578.99 22.0431 580.279 20.7544L599.023 2.01123L599.024 2.00928C600.31 0.726555 602.052 0.0015847 603.876 0.00146484H654.101ZM601.608 19.2183C599.334 19.2183 597.491 21.064 597.49 23.3364V60.3911H660.618V43.9077C660.539 43.6133 660.496 43.3049 660.496 42.9888V23.3364C660.496 21.0614 658.654 19.2185 656.38 19.2183H601.608Z" stroke="black"></path>
<path d="M436.864 0.00146484C438.835 0.00165639 440.434 1.60223 440.434 3.57275V116.667C440.434 118.942 442.276 120.784 444.55 120.785H466.644C468.908 120.785 470.745 118.954 470.757 116.692V3.57275C470.757 1.59745 472.359 0.00146484 474.329 0.00146484H486.402C488.377 0.00146484 489.972 1.60343 489.972 3.57275V116.703C489.989 118.957 491.828 120.785 494.087 120.785H516.047C518.319 120.785 520.164 118.939 520.162 116.668V3.57275C520.162 1.59748 521.763 0.00151429 523.732 0.00146484H539.38V114.394C539.38 116.214 538.659 117.956 537.371 119.245L518.63 137.988L518.629 137.99C517.341 139.273 515.596 139.999 513.775 139.999H496.363C494.544 139.999 492.797 139.277 491.507 137.988L480.366 126.844L469.223 137.988L469.221 137.99C467.934 139.273 466.189 139.999 464.368 139.999H446.823C445 139.998 443.257 139.277 441.968 137.988L423.225 119.245C421.941 117.96 421.216 116.214 421.215 114.394V0.00146484H436.864Z" fill="black"></path>
<path d="M436.864 0.00146484C438.835 0.00165639 440.434 1.60223 440.434 3.57275V116.667C440.434 118.942 442.276 120.784 444.55 120.785H466.644C468.908 120.785 470.745 118.954 470.757 116.692V3.57275C470.757 1.59745 472.359 0.00146484 474.329 0.00146484H486.402C488.377 0.00146484 489.972 1.60343 489.972 3.57275V116.703C489.989 118.957 491.828 120.785 494.087 120.785H516.047C518.319 120.785 520.164 118.939 520.162 116.668V3.57275C520.162 1.59748 521.763 0.00151429 523.732 0.00146484H539.38V114.394C539.38 116.214 538.659 117.956 537.371 119.245L518.63 137.988L518.629 137.99C517.341 139.273 515.596 139.999 513.775 139.999H496.363C494.544 139.999 492.797 139.277 491.507 137.988L480.366 126.844L469.223 137.988L469.221 137.99C467.934 139.273 466.189 139.999 464.368 139.999H446.823C445 139.998 443.257 139.277 441.968 137.988L423.225 119.245C421.941 117.96 421.216 116.214 421.215 114.394V0.00146484H436.864Z" stroke="black"></path>
<path d="M293.126 0.00146484C296.916 0.00147706 299.986 3.07808 299.987 6.86572V61.7681C299.987 64.0428 301.832 65.8852 304.104 65.8853H358.998C361.269 65.8851 363.112 64.0438 363.112 61.7681V6.86572C363.112 3.0744 366.186 0.00347144 369.972 0.00146484H382.327V59.4917C382.326 61.3135 381.601 63.0556 380.319 64.3423L361.577 83.0864C360.291 84.3715 358.543 85.0961 356.726 85.0962H341.158V139.999H321.942V85.0962H306.372C304.556 85.096 302.807 84.3716 301.522 83.0864L282.782 64.3433C281.497 63.0583 280.772 61.3122 280.772 59.4917V0.00146484H293.126Z" fill="black"></path>
<path d="M293.126 0.00146484C296.916 0.00147706 299.986 3.07808 299.987 6.86572V61.7681C299.987 64.0428 301.832 65.8852 304.104 65.8853H358.998C361.269 65.8851 363.112 64.0438 363.112 61.7681V6.86572C363.112 3.0744 366.186 0.00347144 369.972 0.00146484H382.327V59.4917C382.326 61.3135 381.601 63.0556 380.319 64.3423L361.577 83.0864C360.291 84.3715 358.543 85.0961 356.726 85.0962H341.158V139.999H321.942V85.0962H306.372C304.556 85.096 302.807 84.3716 301.522 83.0864L282.782 64.3433C281.497 63.0583 280.772 61.3122 280.772 59.4917V0.00146484H293.126Z" stroke="black"></path>
<path d="M152.68 0C156.472 0.00023565 159.543 3.07621 159.543 6.86426V57.1416L216.678 0H241.883V1.96875L183.471 60.3896H204.168C206.712 60.3897 209.157 61.4 210.956 63.2031L239.07 91.3174L239.236 91.4893C240.935 93.2741 241.883 95.6453 241.883 98.1133V139.997H222.313L222.655 91.499L222.651 91.293C222.607 90.2643 222.181 89.2887 221.451 88.5615L213.705 80.8135L213.557 80.6729C212.8 79.989 211.814 79.6075 210.792 79.6074H163.663C161.389 79.6076 159.547 81.4494 159.547 83.7246V133.136C159.547 136.928 156.475 140 152.683 140H140.328V2.03223C140.328 0.911556 141.239 5.78388e-05 142.36 0H152.68Z" fill="black"></path>
<path d="M152.68 0C156.472 0.00023565 159.543 3.07621 159.543 6.86426V57.1416L216.678 0H241.883V1.96875L183.471 60.3896H204.168C206.712 60.3897 209.157 61.4 210.956 63.2031L239.07 91.3174L239.236 91.4893C240.935 93.2741 241.883 95.6453 241.883 98.1133V139.997H222.313L222.655 91.499L222.651 91.293C222.607 90.2643 222.181 89.2887 221.451 88.5615L213.705 80.8135L213.557 80.6729C212.8 79.989 211.814 79.6075 210.792 79.6074H163.663C161.389 79.6076 159.547 81.4494 159.547 83.7246V133.136C159.547 136.928 156.475 140 152.683 140H140.328V2.03223C140.328 0.911556 141.239 5.78388e-05 142.36 0H152.68Z" stroke="black"></path>
<path d="M75.8281 0.0610352C77.647 0.0610352 79.3934 0.781662 80.6826 2.0708L99.0205 20.4116H99.0273L99.4297 20.814C100.715 22.099 101.439 23.8449 101.439 25.6655V46.6157H89.085C85.2969 46.6155 82.221 43.5439 82.2207 39.7515V23.3901C82.2207 21.1142 80.3782 19.272 78.1074 19.272H23.332C21.0607 19.272 19.2167 21.1169 19.2188 23.3872V56.2212C19.2189 58.497 21.0614 60.3384 23.332 60.3384H23.335L75.8379 60.4468C77.654 60.4473 79.4018 61.1727 80.6865 62.4575L99.4268 81.1997C100.712 82.4847 101.437 84.2316 101.437 86.0522V114.334C101.437 116.154 100.715 117.897 99.4268 119.186L80.6855 137.931C79.3984 139.214 77.6529 139.939 75.832 139.939H25.6045C23.7855 139.939 22.0392 139.219 20.75 137.929L2.00977 119.186C0.725035 117.901 1.66839e-05 116.155 0 114.334V93.3843H12.3516C16.141 93.3845 19.2106 96.4575 19.2148 100.248V116.611C19.215 118.887 21.0585 120.728 23.3291 120.728H78.0986C80.3695 120.728 82.2147 118.883 82.2148 116.611V83.7788C82.2147 81.5032 80.3721 79.6618 78.1016 79.6616H78.0986L25.5986 79.5532C23.7828 79.5524 22.0345 78.8271 20.75 77.5425L2.00977 58.8003C0.724933 57.5153 0 55.7684 0 53.9478V25.6655C5.46537e-05 23.8456 0.721294 22.1027 2.00977 20.814L20.752 2.06885C22.0391 0.785879 23.7838 0.061097 25.6045 0.0610352H75.8281Z" fill="black"></path>
<path d="M75.8281 0.0610352C77.647 0.0610352 79.3934 0.781662 80.6826 2.0708L99.0205 20.4116H99.0273L99.4297 20.814C100.715 22.099 101.439 23.8449 101.439 25.6655V46.6157H89.085C85.2969 46.6155 82.221 43.5439 82.2207 39.7515V23.3901C82.2207 21.1142 80.3782 19.272 78.1074 19.272H23.332C21.0607 19.272 19.2167 21.1169 19.2188 23.3872V56.2212C19.2189 58.497 21.0614 60.3384 23.332 60.3384H23.335L75.8379 60.4468C77.654 60.4473 79.4018 61.1727 80.6865 62.4575L99.4268 81.1997C100.712 82.4847 101.437 84.2316 101.437 86.0522V114.334C101.437 116.154 100.715 117.897 99.4268 119.186L80.6855 137.931C79.3984 139.214 77.6529 139.939 75.832 139.939H25.6045C23.7855 139.939 22.0392 139.219 20.75 137.929L2.00977 119.186C0.725035 117.901 1.66839e-05 116.155 0 114.334V93.3843H12.3516C16.141 93.3845 19.2106 96.4575 19.2148 100.248V116.611C19.215 118.887 21.0585 120.728 23.3291 120.728H78.0986C80.3695 120.728 82.2147 118.883 82.2148 116.611V83.7788C82.2147 81.5032 80.3721 79.6618 78.1016 79.6616H78.0986L25.5986 79.5532C23.7828 79.5524 22.0345 78.8271 20.75 77.5425L2.00977 58.8003C0.724933 57.5153 0 55.7684 0 53.9478V25.6655C5.46537e-05 23.8456 0.721294 22.1027 2.00977 20.814L20.752 2.06885C22.0391 0.785879 23.7838 0.061097 25.6045 0.0610352H75.8281Z" stroke="black"></path>
</svg>