<svg width="200" height="200" viewBox="0 0 200 200" fill="none" xmlns="http://www.w3.org/2000/svg">
<path d="M81.7861 55.3569C83.206 55.3571 84.5288 55.9577 85.5361 56.9644L96.7861 68.2144C98.7956 70.2224 101.446 71.4282 104.286 71.4282H143.776C146.618 71.4282 149.343 72.5576 151.353 74.5669L171.862 95.0757C173.872 97.0849 175 99.8104 175 102.652V120.714C175 123.558 173.79 126.201 171.786 128.214L140.714 159.286C138.704 161.294 136.054 162.5 133.214 162.5H104.286C101.446 162.5 98.7956 161.294 96.7861 159.286L81.7861 144.286C79.7767 142.278 77.1261 141.072 74.2861 141.072H30.3574C27.3995 141.072 25 138.67 25 135.714V125C25 122.044 27.3994 119.643 30.3574 119.643H63.5713C66.4113 119.643 69.0672 120.849 71.0713 122.857L86.0713 137.857C88.0808 139.865 90.7312 141.072 93.5713 141.072H148.214C151.172 141.072 153.571 138.67 153.571 135.714V103.572C153.571 100.616 151.172 98.2144 148.214 98.2144H112.857C111.437 98.2144 110.115 97.6137 109.107 96.6069L90.8926 78.3931C89.8905 77.3863 88.5626 76.7856 87.1426 76.7856H57.1426C54.1847 76.7855 51.7861 74.3842 51.7861 71.4282V60.7144C51.7861 57.753 54.1794 55.3571 57.1426 55.3569H81.7861ZM95.7139 23.2144C98.5538 23.2144 101.204 24.4202 103.214 26.4282L118.214 41.4282C120.223 43.4363 122.874 44.6429 125.714 44.6431H169.643C172.601 44.6431 175 47.0444 175 50.0005V60.7144C175 63.6705 172.601 66.0718 169.643 66.0718H136.429C133.589 66.0718 130.933 64.8652 128.929 62.8569L113.929 47.8569C111.919 45.8488 109.269 44.6431 106.429 44.6431H51.7861C48.8281 44.6431 46.4287 47.0444 46.4287 50.0005V82.1431C46.4288 85.0991 48.8282 87.5005 51.7861 87.5005H87.1426C88.5625 87.5005 89.8852 88.1003 90.8926 89.1069L109.107 107.322C110.109 108.328 111.438 108.928 112.857 108.928H142.857C145.815 108.928 148.214 111.33 148.214 114.286V125C148.214 127.962 145.82 130.357 142.857 130.357H118.214C116.794 130.357 115.471 129.757 114.464 128.75L103.214 117.5C101.204 115.492 98.554 114.286 95.7139 114.286H56.2236C53.3821 114.286 50.6567 113.157 48.6475 111.148L28.1377 90.6382C26.1285 88.6289 25 85.9035 25 83.062V65.0005C25 62.157 26.21 59.514 28.2139 57.5005L59.2861 26.4282C61.2956 24.4202 63.9462 23.2144 66.7861 23.2144H95.7139Z" fill="black"></path>
</svg>