<svg width="250" height="250" viewBox="0 0 250 250" fill="none" xmlns="http://www.w3.org/2000/svg">
<rect width="250" height="250" fill="white"></rect>
<path d="M60.8926 225H31.7783C28.0265 225 25 221.95 25 218.225V150.85H60.8926V225ZM152.664 150.85C156.266 150.85 159.717 152.275 162.269 154.825L196.61 189.15H225V218.225C225 221.975 221.949 225 218.222 225H181.729L143.409 186.7H119.197V225H82.8789V157.625C82.8789 153.875 85.9304 150.85 89.6572 150.85H152.664ZM218.197 25.0996C221.949 25.0998 224.976 28.1502 224.976 31.875V128.85H189.107V25.0996H218.197ZM160.317 25C164.044 25 167.096 28.0254 167.096 31.7754V121.95C167.096 125.675 164.069 128.725 160.317 128.725H31.7783C28.0516 128.725 25.0002 125.7 25 121.95V31.7754C25 28.0504 28.0515 25 31.7783 25H160.317ZM60.8926 92.875H131.203L131.229 60.875H60.8926V92.875Z" fill="black"></path>
</svg>